# xmcd
#
# Track frame offsets:
#	150
#	11903
#	23000
#	35956
#	47873
#	62145
#	73175
#	86833
#	99989
#	113494
#	126491
#
# Disc length: 1837 seconds
#
# Revision: 2
# Processed by: cddbd v1.5.2PL0 Copyright (c) Steve Scherf et al.
# Submitted via: dBpowerAMP V4.0
#
DISCID=9c072b0b
DTITLE=Ernest Tubb - American Music Legends
DYEAR=2004
DGENRE=Country
TTITLE0=Walkin' the Floor Over You
TTITLE1=Half a Mind
TTITLE2=Blue Eyed Elaine
TTITLE3=Waltz Across Texas
TTITLE4=Soldier's Last Letter
TTITLE5=Yellow Rose of Texas
TTITLE6=Goodnight Irene (With Red Foley)
TTITLE7=Drivin' Nails in My Coffin
TTITLE8=Let's Say Goodbye Like We Said Hello
TTITLE9=Slippin' Around
TTITLE10=Thanks a Lot
EXTD=Part of Cracker Barrel's American Music Legend Series
EXTT0=
EXTT1=
EXTT2=
EXTT3=
EXTT4=
EXTT5=
EXTT6=
EXTT7=
EXTT8=
EXTT9=
EXTT10=
PLAYORDER=
